<svg xmlns="http://www.w3.org/2000/svg" width="1920" height="1080"><path d="M414,1336L70,1342L726,1360Z" fill="#41545e" stroke="#41545e" stroke-width="1.51"/><path d="M70,1342L-28,1345L726,1360Z" fill="#425660" stroke="#425660" stroke-width="1.51"/><path d="M93,-276L547,-273L1330,-280Z" fill="#4994a6" stroke="#4994a6" stroke-width="1.51"/><path d="M547,-273L1034,-269L1330,-280Z" fill="#448d9e" stroke="#448d9e" stroke-width="1.51"/><path d="M1355,1258L1143,1283L1936,1330Z" fill="#33434a" stroke="#33434a" stroke-width="1.51"/><path d="M1143,1283L882,1351L1936,1330Z" fill="#34454d" stroke="#34454d" stroke-width="1.51"/><path d="M1456,1237L1355,1258L1936,1330Z" fill="#324148" stroke="#324148" stroke-width="1.51"/><path d="M2014,473L1974,703L2034,751Z" fill="#394b53" stroke="#394b53" stroke-width="1.51"/><path d="M1330,-280L1475,-267L2106,-240Z" fill="#3a7e8d" stroke="#3a7e8d" stroke-width="1.51"/><path d="M1762,-238L1915,-224L2106,-240Z" fill="#377482" stroke="#377482" stroke-width="1.51"/><path d="M1475,-267L1762,-238L2106,-240Z" fill="#397988" stroke="#397988" stroke-width="1.51"/><path d="M2003,-67L2037,-55L2106,-240Z" fill="#3d6773" stroke="#3d6773" stroke-width="1.51"/><path d="M2037,-55L2101,99L2106,-240Z" fill="#40626d" stroke="#40626d" stroke-width="1.51"/><path d="M1936,1330L882,1351L2125,1358Z" fill="#2f3d44" stroke="#2f3d44" stroke-width="1.51"/><path d="M882,1351L726,1360L2125,1358Z" fill="#35454d" stroke="#35454d" stroke-width="1.51"/><path d="M1936,1330L2125,1358L2126,1145Z" fill="#29363d" stroke="#29363d" stroke-width="1.51"/><path d="M1932,1157L1936,1330L2126,1145Z" fill="#2d3a41" stroke="#2d3a41" stroke-width="1.51"/><path d="M2012,929L1991,979L2126,1145Z" fill="#313f46" stroke="#313f46" stroke-width="1.51"/><path d="M2049,851L2012,929L2126,1145Z" fill="#314048" stroke="#314048" stroke-width="1.51"/><path d="M2043,230L1929,326L2151,383Z" fill="#3f535d" stroke="#3f535d" stroke-width="1.51"/><path d="M1929,326L2014,473L2151,383Z" fill="#3e525b" stroke="#3e525b" stroke-width="1.51"/><path d="M2101,99L2043,230L2151,383Z" fill="#40535d" stroke="#40535d" stroke-width="1.51"/><path d="M2014,473L2034,751L2151,383Z" fill="#3b4c55" stroke="#3b4c55" stroke-width="1.51"/><path d="M2034,751L2049,851L2151,383Z" fill="#384951" stroke="#384951" stroke-width="1.51"/><path d="M2106,-240L2101,99L2151,383Z" fill="#425660" stroke="#425660" stroke-width="1.51"/><path d="M2049,851L2126,1145L2151,383Z" fill="#34444c" stroke="#34444c" stroke-width="1.51"/><path d="M2126,1145L2125,1358L2151,383Z" fill="#303f46" stroke="#303f46" stroke-width="1.51"/><path d="M1684,1222L1456,1237L1936,1330Z" fill="#313f46" stroke="#313f46" stroke-width="1.51"/><path d="M2037,-55L1953,45L2101,99Z" fill="#445b65" stroke="#445b65" stroke-width="1.51"/><path d="M1994,202L2043,230L2101,99Z" fill="#42565f" stroke="#42565f" stroke-width="1.51"/><path d="M1991,979L1932,1157L2126,1145Z" fill="#2f3d45" stroke="#2f3d45" stroke-width="1.51"/><path d="M1915,-224L2003,-67L2106,-240Z" fill="#3a6e7a" stroke="#3a6e7a" stroke-width="1.51"/><path d="M1953,45L1994,202L2101,99Z" fill="#435862" stroke="#435862" stroke-width="1.51"/><path d="M1886,512L1974,703L2014,473Z" fill="#3c4f57" stroke="#3c4f57" stroke-width="1.51"/><path d="M2003,-67L1953,45L2037,-55Z" fill="#43606b" stroke="#43606b" stroke-width="1.51"/><path d="M1994,202L1929,326L2043,230Z" fill="#41565f" stroke="#41565f" stroke-width="1.51"/><path d="M2034,751L1952,860L2049,851Z" fill="#35454e" stroke="#35454e" stroke-width="1.51"/><path d="M1952,860L2012,929L2049,851Z" fill="#34444c" stroke="#34444c" stroke-width="1.51"/><path d="M1974,703L1952,860L2034,751Z" fill="#374750" stroke="#374750" stroke-width="1.51"/><path d="M1932,1157L1853,1234L1936,1330Z" fill="#2d3b42" stroke="#2d3b42" stroke-width="1.51"/><path d="M1830,1050L1932,1157L1991,979Z" fill="#324048" stroke="#324048" stroke-width="1.51"/><path d="M1929,326L1851,415L2014,473Z" fill="#40535d" stroke="#40535d" stroke-width="1.51"/><path d="M1851,415L1886,512L2014,473Z" fill="#3f515b" stroke="#3f515b" stroke-width="1.51"/><path d="M1952,860L1991,979L2012,929Z" fill="#34434b" stroke="#34434b" stroke-width="1.51"/><path d="M1753,14L1953,45L2003,-67Z" fill="#45606b" stroke="#45606b" stroke-width="1.51"/><path d="M1915,-224L1753,14L2003,-67Z" fill="#416975" stroke="#416975" stroke-width="1.51"/><path d="M1886,512L1751,629L1974,703Z" fill="#3c4f58" stroke="#3c4f58" stroke-width="1.51"/><path d="M1952,860L1778,905L1991,979Z" fill="#35454d" stroke="#35454d" stroke-width="1.51"/><path d="M1778,905L1830,1050L1991,979Z" fill="#34444c" stroke="#34444c" stroke-width="1.51"/><path d="M1720,245L1929,326L1994,202Z" fill="#445862" stroke="#445862" stroke-width="1.51"/><path d="M1953,45L1735,83L1994,202Z" fill="#465b66" stroke="#465b66" stroke-width="1.51"/><path d="M1735,83L1720,245L1994,202Z" fill="#465b65" stroke="#465b65" stroke-width="1.51"/><path d="M1698,753L1778,905L1952,860Z" fill="#384952" stroke="#384952" stroke-width="1.51"/><path d="M1698,753L1952,860L1974,703Z" fill="#394a53" stroke="#394a53" stroke-width="1.51"/><path d="M1751,629L1698,753L1974,703Z" fill="#3b4e57" stroke="#3b4e57" stroke-width="1.51"/><path d="M1762,-238L1753,14L1915,-224Z" fill="#40707d" stroke="#40707d" stroke-width="1.51"/><path d="M1753,14L1735,83L1953,45Z" fill="#485e69" stroke="#485e69" stroke-width="1.51"/><path d="M1800,516L1751,629L1886,512Z" fill="#3f525b" stroke="#3f525b" stroke-width="1.51"/><path d="M1853,1234L1684,1222L1936,1330Z" fill="#2e3c43" stroke="#2e3c43" stroke-width="1.51"/><path d="M1830,1050L1853,1234L1932,1157Z" fill="#313f46" stroke="#313f46" stroke-width="1.51"/><path d="M1720,245L1851,415L1929,326Z" fill="#435761" stroke="#435761" stroke-width="1.51"/><path d="M1671,-169L1753,14L1762,-238Z" fill="#42707d" stroke="#42707d" stroke-width="1.51"/><path d="M1830,1050L1712,1144L1853,1234Z" fill="#324148" stroke="#324148" stroke-width="1.51"/><path d="M1851,415L1800,516L1886,512Z" fill="#40535d" stroke="#40535d" stroke-width="1.51"/><path d="M1778,905L1702,1043L1830,1050Z" fill="#36464e" stroke="#36464e" stroke-width="1.51"/><path d="M1720,245L1600,380L1851,415Z" fill="#455a64" stroke="#455a64" stroke-width="1.51"/><path d="M1712,1144L1707,1157L1853,1234Z" fill="#314148" stroke="#314148" stroke-width="1.51"/><path d="M1707,1157L1684,1222L1853,1234Z" fill="#314047" stroke="#314047" stroke-width="1.51"/><path d="M1600,380L1800,516L1851,415Z" fill="#425761" stroke="#425761" stroke-width="1.51"/><path d="M1664,167L1720,245L1735,83Z" fill="#495e69" stroke="#495e69" stroke-width="1.51"/><path d="M1702,1043L1712,1144L1830,1050Z" fill="#35444c" stroke="#35444c" stroke-width="1.51"/><path d="M1602,532L1751,629L1800,516Z" fill="#41545d" stroke="#41545d" stroke-width="1.51"/><path d="M1600,380L1602,532L1800,516Z" fill="#435761" stroke="#435761" stroke-width="1.51"/><path d="M1671,-169L1600,-32L1753,14Z" fill="#476b77" stroke="#476b77" stroke-width="1.51"/><path d="M1475,-267L1671,-169L1762,-238Z" fill="#3e7b89" stroke="#3e7b89" stroke-width="1.51"/><path d="M1580,778L1702,1043L1778,905Z" fill="#394a53" stroke="#394a53" stroke-width="1.51"/><path d="M1698,753L1580,778L1778,905Z" fill="#3b4d56" stroke="#3b4d56" stroke-width="1.51"/><path d="M1523,671L1698,753L1751,629Z" fill="#3f515a" stroke="#3f515a" stroke-width="1.51"/><path d="M1600,-32L1735,83L1753,14Z" fill="#4a636e" stroke="#4a636e" stroke-width="1.51"/><path d="M1602,532L1523,671L1751,629Z" fill="#41545d" stroke="#41545d" stroke-width="1.51"/><path d="M1580,778L1451,872L1702,1043Z" fill="#3b4d55" stroke="#3b4d55" stroke-width="1.51"/><path d="M1451,872L1439,996L1702,1043Z" fill="#3b4c54" stroke="#3b4c54" stroke-width="1.51"/><path d="M1582,99L1664,167L1735,83Z" fill="#4a606b" stroke="#4a606b" stroke-width="1.51"/><path d="M1600,-32L1582,99L1735,83Z" fill="#4c626d" stroke="#4c626d" stroke-width="1.51"/><path d="M1523,671L1580,778L1698,753Z" fill="#3e515a" stroke="#3e515a" stroke-width="1.51"/><path d="M1702,1043L1522,1138L1712,1144Z" fill="#35454d" stroke="#35454d" stroke-width="1.51"/><path d="M1664,167L1600,380L1720,245Z" fill="#485d68" stroke="#485d68" stroke-width="1.51"/><path d="M1522,1138L1707,1157L1712,1144Z" fill="#34444b" stroke="#34444b" stroke-width="1.51"/><path d="M1522,1138L1684,1222L1707,1157Z" fill="#34434b" stroke="#34434b" stroke-width="1.51"/><path d="M1439,996L1522,1138L1702,1043Z" fill="#384850" stroke="#384850" stroke-width="1.51"/><path d="M1450,190L1600,380L1664,167Z" fill="#495f6a" stroke="#495f6a" stroke-width="1.51"/><path d="M1522,1138L1456,1237L1684,1222Z" fill="#34444b" stroke="#34444b" stroke-width="1.51"/><path d="M1582,99L1450,190L1664,167Z" fill="#4b616c" stroke="#4b616c" stroke-width="1.51"/><path d="M1475,-267L1600,-32L1671,-169Z" fill="#447683" stroke="#447683" stroke-width="1.51"/><path d="M1553,536L1523,671L1602,532Z" fill="#425760" stroke="#425760" stroke-width="1.51"/><path d="M93,-276L476,-263L547,-273Z" fill="#4d99ab" stroke="#4d99ab" stroke-width="1.51"/><path d="M1417,315L1345,450L1553,536Z" fill="#475d67" stroke="#475d67" stroke-width="1.51"/><path d="M1421,-44L1433,101L1582,99Z" fill="#4e6671" stroke="#4e6671" stroke-width="1.51"/><path d="M1421,-44L1582,99L1600,-32Z" fill="#4c6873" stroke="#4c6873" stroke-width="1.51"/><path d="M1475,-267L1421,-44L1600,-32Z" fill="#477381" stroke="#477381" stroke-width="1.51"/><path d="M1417,315L1553,536L1600,380Z" fill="#475c67" stroke="#475c67" stroke-width="1.51"/><path d="M1450,190L1417,315L1600,380Z" fill="#4a606a" stroke="#4a606a" stroke-width="1.51"/><path d="M1600,380L1553,536L1602,532Z" fill="#445963" stroke="#445963" stroke-width="1.51"/><path d="M1433,101L1450,190L1582,99Z" fill="#4d636f" stroke="#4d636f" stroke-width="1.51"/><path d="M1523,671L1451,872L1580,778Z" fill="#3f515b" stroke="#3f515b" stroke-width="1.51"/><path d="M1344,-117L1421,-44L1475,-267Z" fill="#477786" stroke="#477786" stroke-width="1.51"/><path d="M1345,450L1269,561L1523,671Z" fill="#465b65" stroke="#465b65" stroke-width="1.51"/><path d="M1316,718L1451,872L1523,671Z" fill="#40545d" stroke="#40545d" stroke-width="1.51"/><path d="M1345,450L1523,671L1553,536Z" fill="#445963" stroke="#445963" stroke-width="1.51"/><path d="M1439,996L1349,1005L1522,1138Z" fill="#3a4b54" stroke="#3a4b54" stroke-width="1.51"/><path d="M1269,561L1316,718L1523,671Z" fill="#435862" stroke="#435862" stroke-width="1.51"/><path d="M1304,1210L1456,1237L1522,1138Z" fill="#36474f" stroke="#36474f" stroke-width="1.51"/><path d="M1349,1005L1304,1210L1522,1138Z" fill="#394a52" stroke="#394a52" stroke-width="1.51"/><path d="M1364,258L1417,315L1450,190Z" fill="#4b626d" stroke="#4b626d" stroke-width="1.51"/><path d="M1316,718L1308,861L1451,872Z" fill="#40535d" stroke="#40535d" stroke-width="1.51"/><path d="M1304,1210L1355,1258L1456,1237Z" fill="#36464e" stroke="#36464e" stroke-width="1.51"/><path d="M1330,-280L1344,-117L1475,-267Z" fill="#42808f" stroke="#42808f" stroke-width="1.51"/><path d="M1034,-269L1215,-236L1330,-280Z" fill="#418798" stroke="#418798" stroke-width="1.51"/><path d="M1247,1087L1304,1210L1349,1005Z" fill="#3b4c55" stroke="#3b4c55" stroke-width="1.51"/><path d="M1421,-44L1370,110L1433,101Z" fill="#4f6772" stroke="#4f6772" stroke-width="1.51"/><path d="M1433,101L1370,110L1450,190Z" fill="#4e6570" stroke="#4e6570" stroke-width="1.51"/><path d="M1349,1005L1439,996L1451,872Z" fill="#3c4e57" stroke="#3c4e57" stroke-width="1.51"/><path d="M1308,861L1349,1005L1451,872Z" fill="#3e5059" stroke="#3e5059" stroke-width="1.51"/><path d="M1370,110L1364,258L1450,190Z" fill="#4d646f" stroke="#4d646f" stroke-width="1.51"/><path d="M1203,11L1370,110L1421,-44Z" fill="#506b76" stroke="#506b76" stroke-width="1.51"/><path d="M1203,11L1237,92L1370,110Z" fill="#516975" stroke="#516975" stroke-width="1.51"/><path d="M1364,258L1345,450L1417,315Z" fill="#4a616c" stroke="#4a616c" stroke-width="1.51"/><path d="M1344,-117L1203,11L1421,-44Z" fill="#4c717e" stroke="#4c717e" stroke-width="1.51"/><path d="M1330,-280L1215,-236L1344,-117Z" fill="#448190" stroke="#448190" stroke-width="1.51"/><path d="M1254,497L1269,561L1345,450Z" fill="#485e68" stroke="#485e68" stroke-width="1.51"/><path d="M1219,290L1345,450L1364,258Z" fill="#4c636d" stroke="#4c636d" stroke-width="1.51"/><path d="M1237,92L1219,290L1364,258Z" fill="#4e6671" stroke="#4e6671" stroke-width="1.51"/><path d="M1237,92L1364,258L1370,110Z" fill="#4e6672" stroke="#4e6672" stroke-width="1.51"/><path d="M1304,1210L1143,1283L1355,1258Z" fill="#374850" stroke="#374850" stroke-width="1.51"/><path d="M1219,290L1165,446L1254,497Z" fill="#4b626d" stroke="#4b626d" stroke-width="1.51"/><path d="M1219,290L1254,497L1345,450Z" fill="#4a616c" stroke="#4a616c" stroke-width="1.51"/><path d="M1308,861L1115,963L1349,1005Z" fill="#3f525b" stroke="#3f525b" stroke-width="1.51"/><path d="M1115,963L1247,1087L1349,1005Z" fill="#3e5059" stroke="#3e5059" stroke-width="1.51"/><path d="M1169,816L1308,861L1316,718Z" fill="#42565f" stroke="#42565f" stroke-width="1.51"/><path d="M1215,-236L1203,11L1344,-117Z" fill="#4a7987" stroke="#4a7987" stroke-width="1.51"/><path d="M1269,561L1148,723L1316,718Z" fill="#455a64" stroke="#455a64" stroke-width="1.51"/><path d="M1169,816L1115,963L1308,861Z" fill="#41555e" stroke="#41555e" stroke-width="1.51"/><path d="M1148,723L1169,816L1316,718Z" fill="#445862" stroke="#445862" stroke-width="1.51"/><path d="M1247,1087L1143,1283L1304,1210Z" fill="#394b53" stroke="#394b53" stroke-width="1.51"/><path d="M1102,887L1115,963L1169,816Z" fill="#42565f" stroke="#42565f" stroke-width="1.51"/><path d="M1033,-15L1203,11L1215,-236Z" fill="#4f7885" stroke="#4f7885" stroke-width="1.51"/><path d="M991,215L1219,290L1237,92Z" fill="#506974" stroke="#506974" stroke-width="1.51"/><path d="M1023,1176L1143,1283L1247,1087Z" fill="#3b4d56" stroke="#3b4d56" stroke-width="1.51"/><path d="M1254,497L1072,578L1269,561Z" fill="#485f69" stroke="#485f69" stroke-width="1.51"/><path d="M1072,578L1148,723L1269,561Z" fill="#475d68" stroke="#475d68" stroke-width="1.51"/><path d="M1072,578L1088,691L1148,723Z" fill="#485d67" stroke="#485d67" stroke-width="1.51"/><path d="M1115,963L1088,1012L1247,1087Z" fill="#3f525b" stroke="#3f525b" stroke-width="1.51"/><path d="M1165,446L1072,578L1254,497Z" fill="#4a606b" stroke="#4a606b" stroke-width="1.51"/><path d="M1034,-269L1033,-15L1215,-236Z" fill="#4a8191" stroke="#4a8191" stroke-width="1.51"/><path d="M1088,1012L1023,1176L1247,1087Z" fill="#3d5059" stroke="#3d5059" stroke-width="1.51"/><path d="M1203,11L975,102L1237,92Z" fill="#536c78" stroke="#536c78" stroke-width="1.51"/><path d="M975,102L991,215L1237,92Z" fill="#536c78" stroke="#536c78" stroke-width="1.51"/><path d="M1033,-15L975,102L1203,11Z" fill="#546f7c" stroke="#546f7c" stroke-width="1.51"/><path d="M995,379L1165,446L1219,290Z" fill="#4d6570" stroke="#4d6570" stroke-width="1.51"/><path d="M991,215L995,379L1219,290Z" fill="#506874" stroke="#506874" stroke-width="1.51"/><path d="M1003,1239L882,1351L1143,1283Z" fill="#3a4c54" stroke="#3a4c54" stroke-width="1.51"/><path d="M1148,723L1088,691L1169,816Z" fill="#455a64" stroke="#455a64" stroke-width="1.51"/><path d="M1088,691L1102,887L1169,816Z" fill="#445963" stroke="#445963" stroke-width="1.51"/><path d="M948,-53L1033,-15L1034,-269Z" fill="#4f7e8c" stroke="#4f7e8c" stroke-width="1.51"/><path d="M995,379L1072,578L1165,446Z" fill="#4c636f" stroke="#4c636f" stroke-width="1.51"/><path d="M1023,1176L1003,1239L1143,1283Z" fill="#3b4d56" stroke="#3b4d56" stroke-width="1.51"/><path d="M991,215L957,256L995,379Z" fill="#516a76" stroke="#516a76" stroke-width="1.51"/><path d="M942,1105L1023,1176L1088,1012Z" fill="#3f525b" stroke="#3f525b" stroke-width="1.51"/><path d="M1088,691L899,729L1102,887Z" fill="#465b66" stroke="#465b66" stroke-width="1.51"/><path d="M899,729L888,876L1102,887Z" fill="#465b65" stroke="#465b65" stroke-width="1.51"/><path d="M1102,887L1088,1012L1115,963Z" fill="#41555e" stroke="#41555e" stroke-width="1.51"/><path d="M884,964L1088,1012L1102,887Z" fill="#425660" stroke="#425660" stroke-width="1.51"/><path d="M888,876L884,964L1102,887Z" fill="#445963" stroke="#445963" stroke-width="1.51"/><path d="M547,-273L814,-147L1034,-269Z" fill="#4b8d9e" stroke="#4b8d9e" stroke-width="1.51"/><path d="M995,379L827,516L1072,578Z" fill="#4d6570" stroke="#4d6570" stroke-width="1.51"/><path d="M1072,578L899,729L1088,691Z" fill="#495e69" stroke="#495e69" stroke-width="1.51"/><path d="M884,964L942,1105L1088,1012Z" fill="#41555e" stroke="#41555e" stroke-width="1.51"/><path d="M827,516L899,729L1072,578Z" fill="#4b626d" stroke="#4b626d" stroke-width="1.51"/><path d="M547,-273L741,-146L814,-147Z" fill="#4f8c9c" stroke="#4f8c9c" stroke-width="1.51"/><path d="M957,256L947,355L995,379Z" fill="#516a75" stroke="#516a75" stroke-width="1.51"/><path d="M948,-53L975,102L1033,-15Z" fill="#557380" stroke="#557380" stroke-width="1.51"/><path d="M814,-147L948,-53L1034,-269Z" fill="#4d8393" stroke="#4d8393" stroke-width="1.51"/><path d="M947,355L827,516L995,379Z" fill="#506874" stroke="#506874" stroke-width="1.51"/><path d="M948,-53L889,84L975,102Z" fill="#56717d" stroke="#56717d" stroke-width="1.51"/><path d="M942,1105L1003,1239L1023,1176Z" fill="#3e5059" stroke="#3e5059" stroke-width="1.51"/><path d="M975,102L889,84L991,215Z" fill="#556e7a" stroke="#556e7a" stroke-width="1.51"/><path d="M942,1105L882,1351L1003,1239Z" fill="#3d4f58" stroke="#3d4f58" stroke-width="1.51"/><path d="M889,84L957,256L991,215Z" fill="#546e7a" stroke="#546e7a" stroke-width="1.51"/><path d="M675,1143L882,1351L942,1105Z" fill="#3f525b" stroke="#3f525b" stroke-width="1.51"/><path d="M889,84L805,97L957,256Z" fill="#556f7c" stroke="#556f7c" stroke-width="1.51"/><path d="M808,327L827,516L947,355Z" fill="#516a75" stroke="#516a75" stroke-width="1.51"/><path d="M798,-41L889,84L948,-53Z" fill="#567684" stroke="#567684" stroke-width="1.51"/><path d="M805,97L808,327L957,256Z" fill="#546e7b" stroke="#546e7b" stroke-width="1.51"/><path d="M808,327L947,355L957,256Z" fill="#526b77" stroke="#526b77" stroke-width="1.51"/><path d="M623,1324L414,1336L726,1360Z" fill="#3e525b" stroke="#3e525b" stroke-width="1.51"/><path d="M806,828L888,876L899,729Z" fill="#475e68" stroke="#475e68" stroke-width="1.51"/><path d="M814,-147L798,-41L948,-53Z" fill="#537e8d" stroke="#537e8d" stroke-width="1.51"/><path d="M675,1143L726,1360L882,1351Z" fill="#3e515a" stroke="#3e515a" stroke-width="1.51"/><path d="M827,516L710,632L899,729Z" fill="#4d646f" stroke="#4d646f" stroke-width="1.51"/><path d="M884,964L743,973L942,1105Z" fill="#445862" stroke="#445862" stroke-width="1.51"/><path d="M743,973L675,1143L942,1105Z" fill="#435761" stroke="#435761" stroke-width="1.51"/><path d="M798,-41L805,97L889,84Z" fill="#587380" stroke="#587380" stroke-width="1.51"/><path d="M710,632L806,828L899,729Z" fill="#4a616c" stroke="#4a616c" stroke-width="1.51"/><path d="M805,97L663,227L808,327Z" fill="#56707d" stroke="#56707d" stroke-width="1.51"/><path d="M743,973L884,964L888,876Z" fill="#455b65" stroke="#455b65" stroke-width="1.51"/><path d="M806,828L743,973L888,876Z" fill="#475c67" stroke="#475c67" stroke-width="1.51"/><path d="M675,1143L627,1206L726,1360Z" fill="#41545e" stroke="#41545e" stroke-width="1.51"/><path d="M621,301L593,457L808,327Z" fill="#556f7b" stroke="#556f7b" stroke-width="1.51"/><path d="M741,-146L798,-41L814,-147Z" fill="#528292" stroke="#528292" stroke-width="1.51"/><path d="M591,484L692,607L827,516Z" fill="#506975" stroke="#506975" stroke-width="1.51"/><path d="M593,457L591,484L827,516Z" fill="#526b77" stroke="#526b77" stroke-width="1.51"/><path d="M808,327L593,457L827,516Z" fill="#526b77" stroke="#526b77" stroke-width="1.51"/><path d="M692,607L710,632L827,516Z" fill="#4e6772" stroke="#4e6772" stroke-width="1.51"/><path d="M798,-41L595,53L805,97Z" fill="#597683" stroke="#597683" stroke-width="1.51"/><path d="M638,907L743,973L806,828Z" fill="#485e68" stroke="#485e68" stroke-width="1.51"/><path d="M710,632L638,907L806,828Z" fill="#4a616c" stroke="#4a616c" stroke-width="1.51"/><path d="M533,728L638,907L710,632Z" fill="#4c646f" stroke="#4c646f" stroke-width="1.51"/><path d="M663,227L621,301L808,327Z" fill="#56707d" stroke="#56707d" stroke-width="1.51"/><path d="M595,53L663,227L805,97Z" fill="#597481" stroke="#597481" stroke-width="1.51"/><path d="M741,-146L583,-85L798,-41Z" fill="#548291" stroke="#548291" stroke-width="1.51"/><path d="M583,-85L595,53L798,-41Z" fill="#587d8b" stroke="#587d8b" stroke-width="1.51"/><path d="M627,1206L623,1324L726,1360Z" fill="#3f525c" stroke="#3f525c" stroke-width="1.51"/><path d="M547,-273L583,-85L741,-146Z" fill="#518b9a" stroke="#518b9a" stroke-width="1.51"/><path d="M595,929L675,1143L743,973Z" fill="#465c66" stroke="#465c66" stroke-width="1.51"/><path d="M638,907L595,929L743,973Z" fill="#485e68" stroke="#485e68" stroke-width="1.51"/><path d="M692,607L533,728L710,632Z" fill="#4e6672" stroke="#4e6672" stroke-width="1.51"/><path d="M595,929L449,950L675,1143Z" fill="#485e68" stroke="#485e68" stroke-width="1.51"/><path d="M591,484L533,728L692,607Z" fill="#506974" stroke="#506974" stroke-width="1.51"/><path d="M470,693L533,728L591,484Z" fill="#506975" stroke="#506975" stroke-width="1.51"/><path d="M533,728L595,929L638,907Z" fill="#4b616c" stroke="#4b616c" stroke-width="1.51"/><path d="M595,53L491,99L663,227Z" fill="#5a7583" stroke="#5a7583" stroke-width="1.51"/><path d="M491,99L464,207L663,227Z" fill="#597582" stroke="#597582" stroke-width="1.51"/><path d="M381,1086L627,1206L675,1143Z" fill="#445963" stroke="#445963" stroke-width="1.51"/><path d="M449,950L381,1086L675,1143Z" fill="#475c67" stroke="#475c67" stroke-width="1.51"/><path d="M464,207L621,301L663,227Z" fill="#587380" stroke="#587380" stroke-width="1.51"/><path d="M547,-273L451,-130L583,-85Z" fill="#538c9c" stroke="#538c9c" stroke-width="1.51"/><path d="M482,341L593,457L621,301Z" fill="#56707c" stroke="#56707c" stroke-width="1.51"/><path d="M414,1336L623,1324L627,1206Z" fill="#40545d" stroke="#40545d" stroke-width="1.51"/><path d="M533,728L449,950L595,929Z" fill="#4b626d" stroke="#4b626d" stroke-width="1.51"/><path d="M464,207L482,341L621,301Z" fill="#587380" stroke="#587380" stroke-width="1.51"/><path d="M381,1086L414,1336L627,1206Z" fill="#435862" stroke="#435862" stroke-width="1.51"/><path d="M369,545L470,693L591,484Z" fill="#526c78" stroke="#526c78" stroke-width="1.51"/><path d="M377,893L449,950L533,728Z" fill="#4c636e" stroke="#4c636e" stroke-width="1.51"/><path d="M476,-263L451,-130L547,-273Z" fill="#5092a3" stroke="#5092a3" stroke-width="1.51"/><path d="M451,-130L491,99L583,-85Z" fill="#59818f" stroke="#59818f" stroke-width="1.51"/><path d="M583,-85L491,99L595,53Z" fill="#5b7a88" stroke="#5b7a88" stroke-width="1.51"/><path d="M482,341L591,484L593,457Z" fill="#556f7b" stroke="#556f7b" stroke-width="1.51"/><path d="M381,1086L330,1142L414,1336Z" fill="#455a64" stroke="#455a64" stroke-width="1.51"/><path d="M482,341L369,545L591,484Z" fill="#556f7b" stroke="#556f7b" stroke-width="1.51"/><path d="M320,1298L70,1342L414,1336Z" fill="#435761" stroke="#435761" stroke-width="1.51"/><path d="M470,693L377,893L533,728Z" fill="#4e6671" stroke="#4e6671" stroke-width="1.51"/><path d="M93,-276L264,-182L476,-263Z" fill="#5197a9" stroke="#5197a9" stroke-width="1.51"/><path d="M330,1142L320,1298L414,1336Z" fill="#435862" stroke="#435862" stroke-width="1.51"/><path d="M295,695L377,893L470,693Z" fill="#4f6873" stroke="#4f6873" stroke-width="1.51"/><path d="M296,432L369,545L482,341Z" fill="#56717e" stroke="#56717e" stroke-width="1.51"/><path d="M464,207L333,271L482,341Z" fill="#597581" stroke="#597581" stroke-width="1.51"/><path d="M265,64L464,207L491,99Z" fill="#5d7886" stroke="#5d7886" stroke-width="1.51"/><path d="M451,-130L265,64L491,99Z" fill="#5d7d8b" stroke="#5d7d8b" stroke-width="1.51"/><path d="M369,545L295,695L470,693Z" fill="#526b77" stroke="#526b77" stroke-width="1.51"/><path d="M264,-182L451,-130L476,-263Z" fill="#5391a2" stroke="#5391a2" stroke-width="1.51"/><path d="M333,271L296,432L482,341Z" fill="#597480" stroke="#597480" stroke-width="1.51"/><path d="M328,1033L381,1086L449,950Z" fill="#4a5f6a" stroke="#4a5f6a" stroke-width="1.51"/><path d="M265,64L333,271L464,207Z" fill="#5c7885" stroke="#5c7885" stroke-width="1.51"/><path d="M264,-182L265,64L451,-130Z" fill="#5a8797" stroke="#5a8797" stroke-width="1.51"/><path d="M264,-182L210,-131L265,64Z" fill="#5b8999" stroke="#5b8999" stroke-width="1.51"/><path d="M377,893L358,913L449,950Z" fill="#4c636d" stroke="#4c636d" stroke-width="1.51"/><path d="M358,913L328,1033L449,950Z" fill="#4b626c" stroke="#4b626c" stroke-width="1.51"/><path d="M305,560L295,695L369,545Z" fill="#546d79" stroke="#546d79" stroke-width="1.51"/><path d="M265,64L176,192L333,271Z" fill="#5d7987" stroke="#5d7987" stroke-width="1.51"/><path d="M295,695L110,838L358,913Z" fill="#506873" stroke="#506873" stroke-width="1.51"/><path d="M296,432L305,560L369,545Z" fill="#56707c" stroke="#56707c" stroke-width="1.51"/><path d="M295,695L358,913L377,893Z" fill="#4e6671" stroke="#4e6671" stroke-width="1.51"/><path d="M328,1033L330,1142L381,1086Z" fill="#485e68" stroke="#485e68" stroke-width="1.51"/><path d="M193,1032L328,1033L358,913Z" fill="#4c616d" stroke="#4c616d" stroke-width="1.51"/><path d="M110,838L193,1032L358,913Z" fill="#4d6671" stroke="#4d6671" stroke-width="1.51"/><path d="M182,650L295,695L305,560Z" fill="#536d79" stroke="#536d79" stroke-width="1.51"/><path d="M154,1150L320,1298L330,1142Z" fill="#465c66" stroke="#465c66" stroke-width="1.51"/><path d="M328,1033L193,1032L330,1142Z" fill="#49606a" stroke="#49606a" stroke-width="1.51"/><path d="M193,1032L154,1150L330,1142Z" fill="#48606b" stroke="#48606b" stroke-width="1.51"/><path d="M139,423L296,432L333,271Z" fill="#5a7582" stroke="#5a7582" stroke-width="1.51"/><path d="M176,192L139,423L333,271Z" fill="#5b7986" stroke="#5b7986" stroke-width="1.51"/><path d="M296,432L139,423L305,560Z" fill="#58727f" stroke="#58727f" stroke-width="1.51"/><path d="M154,1150L70,1342L320,1298Z" fill="#435d68" stroke="#435d68" stroke-width="1.51"/><path d="M182,650L110,838L295,695Z" fill="#516e7a" stroke="#516e7a" stroke-width="1.51"/><path d="M139,423L182,650L305,560Z" fill="#55727f" stroke="#55727f" stroke-width="1.51"/><path d="M139,423L84,468L182,650Z" fill="#547885" stroke="#547885" stroke-width="1.51"/><path d="M210,-131L74,-24L265,64Z" fill="#5c8797" stroke="#5c8797" stroke-width="1.51"/><path d="M93,-276L210,-131L264,-182Z" fill="#5297a9" stroke="#5297a9" stroke-width="1.51"/><path d="M74,-24L127,104L265,64Z" fill="#5e8291" stroke="#5e8291" stroke-width="1.51"/><path d="M127,104L176,192L265,64Z" fill="#5d7f8c" stroke="#5d7f8c" stroke-width="1.51"/><path d="M22,188L139,423L176,192Z" fill="#59808e" stroke="#59808e" stroke-width="1.51"/><path d="M0,732L110,838L182,650Z" fill="#4d7380" stroke="#4d7380" stroke-width="1.51"/><path d="M84,468L23,606L182,650Z" fill="#527986" stroke="#527986" stroke-width="1.51"/><path d="M93,-276L74,-24L210,-131Z" fill="#5296a8" stroke="#5296a8" stroke-width="1.51"/><path d="M22,188L-53,367L139,423Z" fill="#558392" stroke="#558392" stroke-width="1.51"/><path d="M-74,1060L154,1150L193,1032Z" fill="#466975" stroke="#466975" stroke-width="1.51"/><path d="M110,838L-74,1060L193,1032Z" fill="#486d7a" stroke="#486d7a" stroke-width="1.51"/><path d="M-66,-139L74,-24L93,-276Z" fill="#4d9caf" stroke="#4d9caf" stroke-width="1.51"/><path d="M-49,851L-74,1060L110,838Z" fill="#477481" stroke="#477481" stroke-width="1.51"/><path d="M-74,1060L-32,1157L154,1150Z" fill="#426c79" stroke="#426c79" stroke-width="1.51"/><path d="M23,606L0,732L182,650Z" fill="#4f7785" stroke="#4f7785" stroke-width="1.51"/><path d="M-32,1157L70,1342L154,1150Z" fill="#426672" stroke="#426672" stroke-width="1.51"/><path d="M127,104L22,188L176,192Z" fill="#5b8391" stroke="#5b8391" stroke-width="1.51"/><path d="M-66,-139L-32,-57L74,-24Z" fill="#5198aa" stroke="#5198aa" stroke-width="1.51"/><path d="M-97,897L-74,1060L-49,851Z" fill="#437886" stroke="#437886" stroke-width="1.51"/><path d="M-53,367L84,468L139,423Z" fill="#54808e" stroke="#54808e" stroke-width="1.51"/><path d="M74,-24L-75,136L127,104Z" fill="#5a8999" stroke="#5a8999" stroke-width="1.51"/><path d="M-75,136L22,188L127,104Z" fill="#588998" stroke="#588998" stroke-width="1.51"/><path d="M-32,1157L-28,1345L70,1342Z" fill="#3d6774" stroke="#3d6774" stroke-width="1.51"/><path d="M0,732L-49,851L110,838Z" fill="#4a7683" stroke="#4a7683" stroke-width="1.51"/><path d="M-32,1157L-94,1250L-28,1345Z" fill="#3c6c79" stroke="#3c6c79" stroke-width="1.51"/><path d="M-32,-57L-75,136L74,-24Z" fill="#5790a0" stroke="#5790a0" stroke-width="1.51"/><path d="M-234,-201L-66,-139L93,-276Z" fill="#3fa9bd" stroke="#3fa9bd" stroke-width="1.51"/><path d="M-143,446L23,606L84,468Z" fill="#4f8290" stroke="#4f8290" stroke-width="1.51"/><path d="M-53,367L-143,446L84,468Z" fill="#508694" stroke="#508694" stroke-width="1.51"/><path d="M-94,1250L-240,1140L-28,1345Z" fill="#39707d" stroke="#39707d" stroke-width="1.51"/><path d="M-137,275L-53,367L22,188Z" fill="#538b9b" stroke="#538b9b" stroke-width="1.51"/><path d="M-75,136L-137,275L22,188Z" fill="#538d9d" stroke="#538d9d" stroke-width="1.51"/><path d="M-143,446L-97,672L23,606Z" fill="#4b8393" stroke="#4b8393" stroke-width="1.51"/><path d="M-97,672L0,732L23,606Z" fill="#4b7d8c" stroke="#4b7d8c" stroke-width="1.51"/><path d="M-143,446L-225,555L-97,672Z" fill="#488999" stroke="#488999" stroke-width="1.51"/><path d="M-113,-70L-75,136L-32,-57Z" fill="#5395a7" stroke="#5395a7" stroke-width="1.51"/><path d="M-97,672L-49,851L0,732Z" fill="#487c8a" stroke="#487c8a" stroke-width="1.51"/><path d="M-129,151L-137,275L-75,136Z" fill="#5290a1" stroke="#5290a1" stroke-width="1.51"/><path d="M-113,-70L-129,151L-75,136Z" fill="#5493a4" stroke="#5493a4" stroke-width="1.51"/><path d="M-97,897L-196,1007L-74,1060Z" fill="#407988" stroke="#407988" stroke-width="1.51"/><path d="M-66,-139L-113,-70L-32,-57Z" fill="#4b9db1" stroke="#4b9db1" stroke-width="1.51"/><path d="M-97,672L-97,897L-49,851Z" fill="#467c8b" stroke="#467c8b" stroke-width="1.51"/><path d="M-74,1060L-240,1140L-32,1157Z" fill="#3d7482" stroke="#3d7482" stroke-width="1.51"/><path d="M-240,1140L-94,1250L-32,1157Z" fill="#3a7281" stroke="#3a7281" stroke-width="1.51"/><path d="M-137,275L-143,446L-53,367Z" fill="#4e8d9d" stroke="#4e8d9d" stroke-width="1.51"/><path d="M-234,-201L-113,-70L-66,-139Z" fill="#41a6bb" stroke="#41a6bb" stroke-width="1.51"/><path d="M-225,555L-196,1007L-97,897Z" fill="#418291" stroke="#418291" stroke-width="1.51"/><path d="M-225,555L-97,897L-97,672Z" fill="#458393" stroke="#458393" stroke-width="1.51"/><path d="M-196,1007L-240,1140L-74,1060Z" fill="#3b7a88" stroke="#3b7a88" stroke-width="1.51"/><path d="M-234,-201L-129,151L-113,-70Z" fill="#4b9fb2" stroke="#4b9fb2" stroke-width="1.51"/><path d="M-225,555L-143,446L-137,275Z" fill="#4a8e9f" stroke="#4a8e9f" stroke-width="1.51"/><path d="M-234,-201L-137,275L-129,151Z" fill="#5197a8" stroke="#5197a8" stroke-width="1.51"/><path d="M-234,-201L-225,555L-137,275Z" fill="#4d95a7" stroke="#4d95a7" stroke-width="1.51"/><path d="M-225,555L-240,1140L-196,1007Z" fill="#3c8292" stroke="#3c8292" stroke-width="1.51"/><path d="M-234,-201L-240,1140L-225,555Z" fill="#4490a1" stroke="#4490a1" stroke-width="1.51"/></svg>